<svg id="sitateru" xmlns="http://www.w3.org/2000/svg" viewBox="0 0 425.21 425.21"><title>アートボード 1</title><path d="M28.81,256.7H30.1V270H28.81Z"/><path d="M57.39,270l1.85-13.32h.21l5.26,10.93,5.2-10.93h.21L72,270H70.71l-1.27-9.52L64.86,270h-.33l-4.62-9.6L58.64,270Z"/><path d="M104.72,256.7l6,13.32h-1.4l-2-4.38h-5.57l-2,4.38H98.29l6.11-13.32Zm-.16,2.83-2.22,4.82h4.42Z"/><path d="M149.42,258.94l-1,1a7.5,7.5,0,0,0-2.37-1.66,6.17,6.17,0,0,0-2.51-.57,5.85,5.85,0,0,0-2.89.77,5.57,5.57,0,0,0-2.89,4.87,5.67,5.67,0,0,0,.78,2.86,5.57,5.57,0,0,0,2.16,2.12,6.05,6.05,0,0,0,3,.78,5.07,5.07,0,0,0,3.37-1.16,4.62,4.62,0,0,0,1.64-3h-4.13v-1.28h5.58a6.84,6.84,0,0,1-1.78,4.9,6.28,6.28,0,0,1-4.72,1.81,7,7,0,0,1-5.68-2.51,6.83,6.83,0,0,1-1.61-4.48,7,7,0,0,1,.93-3.52,6.6,6.6,0,0,1,2.53-2.55,7.21,7.21,0,0,1,3.64-.92,7.85,7.85,0,0,1,3.09.61A9.22,9.22,0,0,1,149.42,258.94Z"/><path d="M176.66,256.7H178V270h-1.29Z"/><path d="M205.48,270V256.7h.28l8.6,10.21V256.7h1.28V270h-.29l-8.53-10.08V270Z"/><path d="M248.62,256.7l6,13.32h-1.39l-2-4.38h-5.58l-2,4.38H242.2l6.11-13.32Zm-.16,2.83-2.21,4.82h4.42Z"/><path d="M279.93,258V256.7H287V258h-2.89v12h-1.31V258Z"/><path d="M313.61,256.7h1.29V270h-1.29Z"/><path d="M348.58,256.37a6.6,6.6,0,0,1,4.92,2,7.24,7.24,0,0,1,0,9.93,6.44,6.44,0,0,1-4.81,2,6.53,6.53,0,0,1-4.86-2,6.77,6.77,0,0,1-2-4.91,7.3,7.3,0,0,1,.9-3.56,6.66,6.66,0,0,1,2.46-2.56A6.46,6.46,0,0,1,348.58,256.37Zm.06,1.29a5.21,5.21,0,0,0-2.72.77,5.5,5.5,0,0,0-2,2.08,5.92,5.92,0,0,0-.72,2.91,5.54,5.54,0,0,0,1.59,4,5.2,5.2,0,0,0,3.86,1.63,5.39,5.39,0,0,0,2.78-.75,5.28,5.28,0,0,0,2-2.06,5.88,5.88,0,0,0,.72-2.9,5.8,5.8,0,0,0-.72-2.87,5.51,5.51,0,0,0-2-2.05A5.38,5.38,0,0,0,348.64,257.66Z"/><path d="M380.17,270V256.7h.28l8.61,10.21V256.7h1.27V270H390l-8.53-10.08V270Z"/><path d="M55.37,187.26l-5,5.37q-6.3-6.3-12.33-6.3a9.19,9.19,0,0,0-6.56,2.6A8.15,8.15,0,0,0,28.7,195,9.15,9.15,0,0,0,31,200.85q2.25,2.84,9.46,6.65,8.78,4.68,11.93,9a16.8,16.8,0,0,1,3.09,9.89,18,18,0,0,1-5.29,13.13,17.75,17.75,0,0,1-13.21,5.38,22.57,22.57,0,0,1-10.1-2.37A22,22,0,0,1,18.88,236l4.94-5.78q6,7,12.77,7a11.29,11.29,0,0,0,8-3.13A9.74,9.74,0,0,0,48,226.76a9.58,9.58,0,0,0-2.19-6.19q-2.21-2.65-9.91-6.71-8.26-4.4-11.25-8.68a16.65,16.65,0,0,1-3-9.77,16.24,16.24,0,0,1,16.76-16.66Q46.82,178.75,55.37,187.26Z"/><path d="M69.61,154.46a6.13,6.13,0,0,1,4.58,2,6.8,6.8,0,0,1,0,9.43,6.27,6.27,0,0,1-9.11,0,6.8,6.8,0,0,1,0-9.43A6.1,6.1,0,0,1,69.61,154.46Zm-3.9,25.91h7.86V243.3H65.71Z"/><path d="M93.54,157h7.86v23.36h12.47v7H101.4V243.3H93.54V187.37H82.81v-7H93.54Z"/><path d="M184.69,180.37V243.3h-7.75V232.48a34,34,0,0,1-11.09,9.32,30.3,30.3,0,0,1-35.6-6.57,33,33,0,0,1-9.18-23.57,32.37,32.37,0,0,1,9.26-23.25,29.79,29.79,0,0,1,22.29-9.66,28.12,28.12,0,0,1,13.62,3.3,31.32,31.32,0,0,1,10.7,9.89V180.37Zm-31.42,6.19a23.23,23.23,0,0,0-12.12,3.32,24.14,24.14,0,0,0-8.83,9.33,26.16,26.16,0,0,0,0,25.42,24.48,24.48,0,0,0,8.89,9.45,22.74,22.74,0,0,0,12,3.38,24,24,0,0,0,12.23-3.35,23.19,23.19,0,0,0,8.89-9.07,26.6,26.6,0,0,0,3.11-12.89,25.43,25.43,0,0,0-7-18.25A22.82,22.82,0,0,0,153.27,186.56Z"/><path d="M207,157h7.86v23.36h12.47v7H214.9V243.3H207V187.37H196.32v-7H207Z"/><path d="M288.06,222.42l6.63,3.59a37.16,37.16,0,0,1-7.53,10.64,29.84,29.84,0,0,1-9.61,6.16,32.82,32.82,0,0,1-12.09,2.11q-14.94,0-23.38-10.09A34.66,34.66,0,0,1,233.65,212a34.27,34.27,0,0,1,7.14-21.34q9-11.91,24.22-11.92,15.63,0,25,12.21,6.63,8.61,6.74,21.51h-55q.22,11,6.8,18a21.41,21.41,0,0,0,16.25,7,25.52,25.52,0,0,0,9.08-1.67,23.89,23.89,0,0,0,7.5-4.44A37.09,37.09,0,0,0,288.06,222.42Zm0-16.95a27.26,27.26,0,0,0-4.58-10.35,21.78,21.78,0,0,0-8-6.24,23.67,23.67,0,0,0-10.4-2.38,22.05,22.05,0,0,0-15.47,6q-4.71,4.33-7.13,13Z"/><path d="M305.86,180.37h8v9.2a28.74,28.74,0,0,1,7.58-8.13,14.68,14.68,0,0,1,8.31-2.69,14.13,14.13,0,0,1,7,2.14l-4.1,6.83a10.77,10.77,0,0,0-4.16-1.1,11.22,11.22,0,0,0-7.58,3.32q-3.65,3.33-5.56,10.33-1.46,5.37-1.46,21.75V243.3h-8Z"/><path d="M340.58,180.37h7.86v29.38q0,10.77,1.12,14.81A16.51,16.51,0,0,0,356,233.7a19.13,19.13,0,0,0,11.33,3.35,18.74,18.74,0,0,0,11.17-3.27,16.65,16.65,0,0,0,6.32-8.58q1.19-3.64,1.18-15.45V180.37h8v30.89q0,13-2.94,19.6a23,23,0,0,1-8.88,10.33q-5.93,3.74-14.85,3.73t-14.91-3.73a22.82,22.82,0,0,1-8.92-10.41q-3-6.69-2.95-20.1Z"/><path d="M393.84,159.69h4.58a4.91,4.91,0,0,1,1.86.31,2.18,2.18,0,0,1,1.4,2.18,2.27,2.27,0,0,1-.38,1.35,2.53,2.53,0,0,1-1,.85,2,2,0,0,1,.89.58,1.87,1.87,0,0,1,.33,1.15l0,1.24a3.32,3.32,0,0,0,.09.78.81.81,0,0,0,.44.57v.2h-1.67a.94.94,0,0,1-.11-.3,5.32,5.32,0,0,1-.07-.73l-.08-1.54a1.29,1.29,0,0,0-.71-1.21,3.25,3.25,0,0,0-1.2-.16h-3v3.94h-1.37Zm4.43,4.22a2.64,2.64,0,0,0,1.48-.35,1.38,1.38,0,0,0,.54-1.26,1.33,1.33,0,0,0-.76-1.34,2.52,2.52,0,0,0-1.08-.19h-3.24v3.14Z"/><path d="M397.44,154.92a9.15,9.15,0,1,0,9.16,9.15A9.15,9.15,0,0,0,397.44,154.92Zm0,17.23a8.08,8.08,0,1,1,8.08-8.08A8.08,8.08,0,0,1,397.44,172.15Z"/></svg>